<?xml version="1.0" encoding="utf-8"?>
<!-- Generator: Adobe Illustrator 22.0.1, SVG Export Plug-In . SVG Version: 6.00 Build 0)  -->
<svg version="1.1" id="Layer_1" xmlns="http://www.w3.org/2000/svg" xmlns:xlink="http://www.w3.org/1999/xlink" x="0px" y="0px"
	 viewBox="0 0 100 74" style="enable-background:new 0 0 100 74;" xml:space="preserve">
<style type="text/css">
	.st0{display:none;}
	.st1{display:none;opacity:0.61;fill:#424242;enable-background:new    ;}
	.st2{display:none;fill:#114C92;}
	.st3{display:none;fill:#464646;}
	.st4{fill:#114C92;}
	.st5{font-family:'NanumGothicBold';}
	.st6{font-size:17px;}
	.st7{display:inline;fill:#464646;}
	.st8{display:none;fill:none;stroke:#464646;stroke-width:2.5146;stroke-miterlimit:10;}
	.st9{display:none;fill:#00C73C;}
	.st10{display:none;fill:none;stroke:#114C92;stroke-width:2.2466;stroke-miterlimit:10;}
</style>
<g id="Layer_1_1_" class="st0">
</g>
<path class="st1" d="M49.3,93.4L49.3,93.4c-23.3,0-42.4-19-42.4-42.3l0,0C6.9,27.8,26,8.7,49.3,8.7l0,0c23.3,0,42.3,19.1,42.3,42.3
	l0,0C91.6,74.4,72.5,93.4,49.3,93.4z"/>
<path class="st2" d="M49.3,4.2c-15.1,0-27.2,12.3-27.4,27.4c-0.2,19.3,27.3,41.3,27.3,41.3S76.5,51,76.7,31.5
	C76.8,16.4,64.4,4.2,49.3,4.2z M49.3,55.1c-13,0-23.6-10.6-23.6-23.6S36.3,7.9,49.3,7.9s23.6,10.6,23.6,23.6
	C72.9,44.6,62.3,55.1,49.3,55.1z"/>
<path class="st2" d="M49.3,12.6c-10.5,0-18.9,8.5-18.9,18.9c0,10.5,8.5,18.9,18.9,18.9S68.2,42,68.2,31.5
	C68.2,21.1,59.8,12.6,49.3,12.6z M38.6,26.3c0-1.3,1-2.3,2.3-2.3s2.3,1,2.3,2.3s-1,2.3-2.3,2.3C39.7,28.6,38.6,27.6,38.6,26.3z
	 M49.2,45c-4.1,0-7.7-2.5-9.8-6.3H59C56.9,42.5,53.3,45,49.2,45z M57.7,28.6c-1.3,0-2.3-1-2.3-2.3s1-2.3,2.3-2.3s2.3,1,2.3,2.3
	S58.9,28.6,57.7,28.6z"/>
<text transform="matrix(1 0 0 1 18 92)" style="display:none;fill:#114C92;enable-background:new    ; font-family:'MalgunGothicRegular'; font-size:15px;">위치 안내</text>
<path class="st3" d="M84.5,34.2c-4.7,0-7.8-2.5-9.3-5.9c-1.4,3.4-4.6,6.1-9.4,6.1c-1.9,0-3.6-0.4-5-1.1c-1.5,1-3.5,1.6-5.8,1.6
	c-4,0-6.8-1.8-8.5-4.4c-2,3.8-5.7,6.5-11.2,6.5s-9.2-2.7-11.2-6.5c-1.2,1.8-3.2,3.2-6,3.2c-4.5,0-6.9-3.2-7.2-6.7
	C9,28.6,8,30.6,8,32.8c0,4.9,5.1,8.8,11.5,8.8c1.5,0,3-0.2,4.3-0.7c1.1,2.2,2.7,4,4.6,5.4c0.5,0.2,1,0.4,1.4,0.7
	c0.3,0.2,0.5,0.4,0.8,0.6c1.8,0.8,3.8,1.3,5.8,1.3c4.7,0,8.9-2.4,11.5-6.1c2,3.8,4.8,6.1,8,6.1c2.7,0,5.2-1.7,7.1-4.6
	c1.8,1.6,4,2.6,6.4,2.6c4.3,0,8.1-3.1,9.7-7.6c1,0.4,2.1,0.6,3.3,0.6c4.7,0,8.5-3.6,8.5-8C89.4,33.4,87.2,34.2,84.5,34.2z"/>
<path class="st3" d="M45,49.4c-1.7,2.9-4.8,5.1-9.2,5.1c-1.2,0-2.3-0.2-3.3-0.5c-4.1-0.8-6.7-3.6-7.8-7l0,0c-1.3,0.7-2.8,1-4.3,1H20
	c-2,0-3.9-0.5-5.6-1.5c-0.4-0.3-0.8-0.6-1.2-1c-0.1,0-0.1-0.1-0.2-0.1c-0.3-0.2-0.6-0.4-0.9-0.7c-0.2-0.2-0.4-0.4-0.5-0.6
	C11.2,45,11,46,11,47.1c0,3.9,2.7,7,6,7c1,0,1.9-0.3,2.8-0.8c1.8,3.8,6.6,6.5,12.2,6.5c7.2,0,13-4.4,13-9.9C45,49.8,45,49.6,45,49.4
	z"/>
<path class="st3" d="M84.4,42.4c-1,1.4-2.5,2.5-4.7,2.8c-1,0.1-1.9,0.1-2.7-0.1c-0.6,2.4-2.4,4.5-5.7,5c-0.6,0.1-1.2,0.1-1.8,0.1
	c-0.2,0.1-0.4,0.1-0.7,0.1c-1.4,0.2-2.7,0-3.7-0.4c-0.9,0.8-2.1,1.4-3.7,1.6c-2.3,0.3-4.2-0.3-5.6-1.5c-0.1,0.4-0.1,0.8,0,1.2
	c0.3,2.2,2.6,3.7,5,3.3c0.5-0.1,0.9-0.2,1.3-0.4c1.8,2.2,5.4,3.4,9.2,2.9c5.2-0.8,8.9-4.5,8.4-8.3l0,0c0.2,0,0.3,0,0.5-0.1
	c3-0.4,5.2-2.6,4.9-4.8C85.1,43.4,84.8,42.8,84.4,42.4z"/>
<text transform="matrix(1 0 0 1 19 64.5)" class="st4 st5 st6">객실안내</text>
<g id="Layer_5" class="st0">
	<path class="st7" d="M72.1,19H23.7c-0.7,0-1.3-0.6-1.3-1.3l0,0c0-0.7,0.6-1.3,1.3-1.3h48.4c0.7,0,1.3,0.6,1.3,1.3l0,0
		C73.3,18.4,72.7,19,72.1,19z"/>
	<ellipse class="st7" cx="73.3" cy="17.8" rx="1.7" ry="3.8"/>
	<ellipse class="st7" cx="22.4" cy="17.8" rx="1.7" ry="3.8"/>
	<path class="st7" d="M24.9,19v49.2c0,0,7.5,2.5,11.7,0s-6.7-5.8-4.2-12.5s0.8-6.7,5.8-9.2s10-28.4,10-28.4L24.9,19z"/>
	<path class="st7" d="M70.8,18.2v49.7c0,0-7.5,2.5-11.7,0s6.7-5.9,4.2-12.7s-0.8-6.8-5.8-9.3s-10-28.6-10-28.6L70.8,18.2z"/>
	<path class="st7" d="M62.9,49.9H32c-0.3,0-0.4-0.2-0.4-0.4l0,0c0-0.3,0.2-0.4,0.4-0.4h30.9c0.3,0,0.4,0.2,0.4,0.4l0,0
		C63.3,49.7,63.2,49.9,62.9,49.9z"/>
	<path class="st7" d="M47.9,69.1L47.9,69.1c-0.3,0-0.4-0.2-0.4-0.4V18.6c0-0.3,0.2-0.4,0.4-0.4l0,0c0.3,0,0.4,0.2,0.4,0.4v50.1
		C48.3,68.9,48.1,69.1,47.9,69.1z"/>
	<path class="st7" d="M63.7,69.1H32.9c-0.3,0-0.4-0.2-0.4-0.4l0,0c0-0.3,0.2-0.4,0.4-0.4h30.9c0.3,0,0.4,0.2,0.4,0.4l0,0
		C64.2,68.9,64,69.1,63.7,69.1z"/>
</g>
<circle class="st8" cx="51" cy="37.2" r="21"/>
<path class="st3" d="M60.2,38.7L60.2,38.7c0,0.7-0.7,1.3-1.3,1.2l-8.4-0.4c-0.7,0-1.3-0.7-1.2-1.3l0,0c0-0.7,0.7-1.3,1.3-1.2
	l8.4,0.4C59.7,37.5,60.2,38.1,60.2,38.7z"/>
<path class="st3" d="M50.5,38.9L50.5,38.9c-0.7,0-1.3-0.6-1.3-1.3v-8.4c0-0.7,0.6-1.3,1.3-1.3l0,0c0.7,0,1.3,0.6,1.3,1.3v8.4
	C51.8,38.3,51.2,38.9,50.5,38.9z"/>
<path class="st3" d="M36,67.9L36,67.9c-0.7-0.3-1-1-0.8-1.6l3-7.8c0.3-0.7,1-1,1.6-0.8l0,0c0.7,0.3,1,1,0.8,1.6l-3,7.8
	C37.4,67.8,36.6,68.2,36,67.9z"/>
<path class="st3" d="M65.8,67.9L65.8,67.9c-0.7,0.3-1.3-0.1-1.6-0.8l-2.8-7.9c-0.3-0.7,0.1-1.3,0.8-1.6l0,0c0.7-0.3,1.3,0.1,1.6,0.8
	l2.8,7.9C66.8,67,66.5,67.7,65.8,67.9z"/>
<path class="st3" d="M35.5,13.2L35.5,13.2c-0.3-0.6,0-1.3,0.6-1.7l7.5-3.6c0.6-0.3,1.3,0,1.7,0.6l0,0c0.3,0.6,0,1.3-0.6,1.7
	l-7.5,3.6C36.6,14.1,35.9,13.8,35.5,13.2z"/>
<path class="st3" d="M56,8L56,8c0.3-0.6,1.2-0.8,1.8-0.4l7.1,4.4c0.6,0.3,0.8,1.2,0.4,1.8l0,0c-0.3,0.6-1.2,0.8-1.8,0.4l-7.1-4.4
	C55.8,9.3,55.6,8.6,56,8z"/>
<path class="st2" d="M35.7,25.6h-0.6c-1.3,0-2.4-1-2.4-2.4v-6.8c0-1.3,1-2.4,2.4-2.4h0.6c1.3,0,2.4,1,2.4,2.4v6.8
	C38.1,24.4,37,25.6,35.7,25.6z"/>
<path class="st2" d="M62.3,25.6h-0.6c-1.4,0-2.4-1-2.4-2.4v-6.8c0-1.3,1-2.4,2.4-2.4h0.6c1.3,0,2.4,1,2.4,2.4v6.8
	C64.7,24.4,63.6,25.6,62.3,25.6z"/>
<path class="st2" d="M67.3,19.5V23c0,3-2.4,5.6-5.3,5.6c-2.9,0-5.3-2.5-5.3-5.6v-3.7H40.8v4.6c0,3-2.4,5.6-5.3,5.6
	c-2.9,0-5.3-2.5-5.3-5.6v-4.5c-6,1-10.6,6.5-10.6,13.1v15.4c0,7.2,5.7,13.1,12.6,13.1h33.3C72.3,61,78,55.1,78,47.8V32.5
	C78,26,73.4,20.5,67.3,19.5z M66.9,53.9H31.4c-1.2,0-2.2-1-2.2-2.2s1-2.2,2.2-2.2h35.4c1.2,0,2.2,1,2.2,2.2
	C69.1,52.9,68.1,53.9,66.9,53.9z M66.9,45.9H31.4c-1.2,0-2.2-1-2.2-2.2s1-2.2,2.2-2.2h35.4c1.2,0,2.2,1,2.2,2.2
	C69.1,44.9,68.1,45.9,66.9,45.9z M66.9,38H31.4c-1.2,0-2.2-1-2.2-2.2s1-2.2,2.2-2.2h35.4c1.2,0,2.2,1,2.2,2.2
	C69.1,36.9,68.1,38,66.9,38z"/>
<text transform="matrix(1 0 0 1 -132.6665 -60.3332)" style="font-family:'ArialMT'; font-size:12px;">#424242 </text>
<text transform="matrix(1 0 0 1 -87.2665 -60.3332)" style="font-family:'AdobeMyungjoStd-Medium-KSCpc-EUC-H'; font-size:12px;">진회색</text>
<text transform="matrix(1 0 0 1 -102.6665 -77.9332)" style="font-family:'ArialMT'; font-size:12px;">#747474 </text>
<text transform="matrix(1 0 0 1 -102.6665 -34.7332)" style="font-family:'ArialMT'; font-size:12px;">00c73c</text>
<text transform="matrix(1 0 0 1 -71.2665 -63.9332)" style="font-family:'AdobeMyungjoStd-Medium-KSCpc-EUC-H'; font-size:12px;">회색</text>
<text transform="matrix(1 0 0 1 -132.6665 -31.5332)" style="font-family:'ArialMT'; font-size:12px;">#114c92 </text>
<text transform="matrix(1 0 0 1 -44.6332 -66.1998)" style="font-family:'AdobeMyungjoStd-Medium-KSCpc-EUC-H'; font-size:12px;">파랑</text>
<path class="st9" d="M39.8,16.3h-0.4c-1,0-1.8-0.8-1.8-1.8V9.3c0-1,0.8-1.8,1.8-1.8h0.4c1,0,1.8,0.8,1.8,1.8v5.2
	C41.6,15.5,40.8,16.3,39.8,16.3z"/>
<path class="st9" d="M60.2,16.3h-0.4c-1,0-1.8-0.8-1.8-1.8V9.3c0-1,0.8-1.8,1.8-1.8h0.4c1,0,1.8,0.8,1.8,1.8v5.2
	C62,15.5,61.1,16.3,60.2,16.3z"/>
<path class="st9" d="M64,11.7v2.7c0,2.3-1.8,4.3-4.1,4.3c-2.3,0-4.1-1.9-4.1-4.3v-2.9H43.6v3.5c0,2.3-1.8,4.3-4.1,4.3
	c-2.3,0-4.1-1.9-4.1-4.3v-3.4c-4.6,0.8-8.1,5-8.1,10v11.8c0,5.5,4.3,10,9.6,10h25.6c5.3,0,9.6-4.5,9.6-10.1V21.7
	C72.2,16.7,68.6,12.4,64,11.7z M63.7,38.1H36.5c-0.9,0-1.7-0.8-1.7-1.7c0-0.9,0.8-1.7,1.7-1.7h27.2c0.9,0,1.7,0.8,1.7,1.7
	S64.6,38.1,63.7,38.1z M63.7,32H36.5c-0.9,0-1.7-0.8-1.7-1.7s0.8-1.7,1.7-1.7h27.2c0.9,0,1.7,0.8,1.7,1.7S64.6,32,63.7,32z
	 M63.7,25.9H36.5c-0.9,0-1.7-0.8-1.7-1.7s0.8-1.7,1.7-1.7h27.2c0.9,0,1.7,0.8,1.7,1.7S64.6,25.9,63.7,25.9z"/>
<circle class="st10" cx="50.3" cy="26.5" r="15.4"/>
<path class="st2" d="M57,27.6L57,27.6c0,0.5-0.5,0.9-1,0.9l-6.2-0.3c-0.5,0-0.9-0.5-0.9-1l0,0c0-0.5,0.5-0.9,1-0.9l6.2,0.3
	C56.7,26.7,57,27.1,57,27.6z"/>
<path class="st2" d="M49.9,27.7L49.9,27.7c-0.5,0-0.9-0.4-0.9-0.9v-6.2c0-0.5,0.4-0.9,0.9-0.9l0,0c0.5,0,0.9,0.4,0.9,0.9v6.2
	C50.9,27.3,50.4,27.7,49.9,27.7z"/>
<path class="st2" d="M39.3,49.1L39.3,49.1c-0.6-0.2-0.9-0.7-0.7-1.2l2.7-5.7c0.2-0.5,0.9-0.7,1.4-0.6l0,0c0.6,0.2,0.9,0.7,0.7,1.2
	l-2.7,5.7C40.6,49,39.9,49.3,39.3,49.1z"/>
<path class="st2" d="M61.1,49.1L61.1,49.1c-0.6,0.2-1.1-0.1-1.3-0.6l-2.4-5.8c-0.2-0.5,0.1-1,0.6-1.2l0,0c0.6-0.2,1.1,0.1,1.3,0.6
	l2.4,5.8C61.9,48.4,61.7,48.9,61.1,49.1z"/>
<path class="st2" d="M37.7,8.7L37.7,8.7c-0.3-0.5,0-1.1,0.5-1.4l6.4-3.1c0.5-0.3,1.1,0,1.4,0.5l0,0c0.3,0.5,0,1.1-0.5,1.4l-6.4,3.1
	C38.7,9.5,38,9.2,37.7,8.7z"/>
<path class="st2" d="M54,4L54,4c0.3-0.5,1-0.7,1.6-0.4l6.3,3.9c0.5,0.3,0.7,1,0.4,1.6l0,0c-0.3,0.5-1,0.7-1.6,0.4l-6.3-3.9
	C53.8,5.2,53.7,4.5,54,4z"/>
<g id="Layer_5_1_">
	<path class="st4" d="M69.9,9.5H32.7c-0.5,0-1-0.4-1-1l0,0c0-0.5,0.4-1,1-1h37.1c0.5,0,1,0.4,1,1l0,0C70.8,9.1,70.4,9.5,69.9,9.5z"
		/>
	<ellipse class="st4" cx="70.8" cy="8.6" rx="1.3" ry="2.9"/>
	<ellipse class="st4" cx="31.8" cy="8.6" rx="1.3" ry="2.9"/>
	<path class="st4" d="M33.7,9.5v37.8c0,0,5.8,1.9,9,0s-5.1-4.5-3.2-9.6s0.6-5.1,4.5-7s7.7-21.8,7.7-21.8L33.7,9.5z"/>
	<path class="st4" d="M68.9,8.9V47c0,0-5.8,1.9-9,0c-3.2-1.9,5.1-4.5,3.2-9.7s-0.6-5.2-4.5-7.1c-3.8-1.9-7.7-22-7.7-22L68.9,8.9z"/>
	<path class="st4" d="M62.8,33.2H39.1c-0.2,0-0.3-0.1-0.3-0.3l0,0c0-0.2,0.1-0.3,0.3-0.3h23.7c0.2,0,0.3,0.1,0.3,0.3l0,0
		C63.2,33.1,63,33.2,62.8,33.2z"/>
	<path class="st4" d="M51.3,47.9L51.3,47.9c-0.2,0-0.3-0.1-0.3-0.3V9.2c0-0.2,0.1-0.3,0.3-0.3l0,0c0.2,0,0.3,0.1,0.3,0.3v38.4
		C51.6,47.8,51.5,47.9,51.3,47.9z"/>
	<path class="st4" d="M63.5,47.9H39.8c-0.2,0-0.3-0.1-0.3-0.3l0,0c0-0.2,0.1-0.3,0.3-0.3h23.7c0.2,0,0.3,0.1,0.3,0.3l0,0
		C63.8,47.8,63.7,47.9,63.5,47.9z"/>
</g>
</svg>
